<mxfile host="app.diagrams.net" modified="2024-08-15T16:30:28.172Z" agent="Mozilla/5.0 (Windows NT 10.0; Win64; x64) AppleWebKit/537.36 (KHTML, like Gecko) Chrome/127.0.0.0 Safari/537.36" etag="dkOYss83tRLboZdgUrzn" version="21.6.9" type="device">
  <diagram id="3228e29e-7158-1315-38df-8450db1d8a1d" name="Page-1">
    <mxGraphModel dx="1628" dy="967" grid="1" gridSize="10" guides="1" tooltips="1" connect="1" arrows="1" fold="1" page="1" pageScale="1" pageWidth="2100" pageHeight="1600" background="#FFFFFF" math="0" shadow="0">
      <root>
        <mxCell id="0" />
        <mxCell id="1" parent="0" />
        <mxCell id="xjmqVt3X7ruV0F9-SoPd-12" value="楼梯" style="rounded=0;whiteSpace=wrap;html=1;fontSize=24;shadow=0;glass=0;fillStyle=auto;gradientColor=none;fillColor=default;" parent="1" vertex="1">
          <mxGeometry x="1810.5" y="526" width="118.27" height="220" as="geometry" />
        </mxCell>
        <mxCell id="R6_tbuOiA4LubrBfz1OE-21567" value="" style="rounded=0;whiteSpace=wrap;html=1;fillColor=#dae8fc;strokeColor=#6c8ebf;align=right;opacity=60;fontSize=36;labelPosition=left;verticalLabelPosition=middle;verticalAlign=middle;" parent="1" vertex="1">
          <mxGeometry x="214" y="110" width="1595" height="1240" as="geometry" />
        </mxCell>
        <mxCell id="R6_tbuOiA4LubrBfz1OE-21570" value="乐读书社" style="rounded=0;whiteSpace=wrap;html=1;shadow=0;glass=0;sketch=0;fillColor=#d5e8d4;strokeColor=#82b366;fontSize=36;" parent="1" vertex="1">
          <mxGeometry x="706.53" y="104" width="959.47" height="400" as="geometry" />
        </mxCell>
        <mxCell id="R6_tbuOiA4LubrBfz1OE-21568" value="瑞幸咖啡" style="rounded=1;whiteSpace=wrap;html=1;fillColor=#0050ef;strokeColor=#001DBC;fontColor=#ffffff;fontSize=36;" parent="1" vertex="1">
          <mxGeometry x="1140" y="408.58" width="396.5" height="95.68" as="geometry" />
        </mxCell>
        <mxCell id="R6_tbuOiA4LubrBfz1OE-21571" value="喜宝&lt;br&gt;美甲美睫&lt;br&gt;皮肤管理" style="rounded=0;whiteSpace=wrap;html=1;shadow=0;glass=0;sketch=0;fillColor=#fff2cc;strokeColor=#d6b656;fontSize=36;" parent="1" vertex="1">
          <mxGeometry x="459" y="105" width="251" height="175" as="geometry" />
        </mxCell>
        <mxCell id="R6_tbuOiA4LubrBfz1OE-21574" value="墙" style="rounded=0;whiteSpace=wrap;html=1;glass=0;shadow=0;sketch=0;fillColor=#C2C2C2;gradientColor=none;strokeColor=#666666;fillStyle=auto;fontSize=24;" parent="1" vertex="1">
          <mxGeometry x="709" y="505" width="830" height="26.37" as="geometry" />
        </mxCell>
        <mxCell id="R6_tbuOiA4LubrBfz1OE-21575" value="&lt;font style=&quot;font-size: 24px;&quot;&gt;墙&lt;/font&gt;" style="rounded=0;whiteSpace=wrap;html=1;glass=0;shadow=0;sketch=0;fillColor=#C2C2C2;gradientColor=none;strokeColor=#666666;fontSize=24;" parent="1" vertex="1">
          <mxGeometry x="1667" y="104.26" width="30" height="400" as="geometry" />
        </mxCell>
        <mxCell id="R6_tbuOiA4LubrBfz1OE-21578" value="&lt;font style=&quot;font-size: 36px;&quot;&gt;一间寿司&lt;/font&gt;" style="rounded=0;whiteSpace=wrap;html=1;shadow=0;glass=0;sketch=0;fillStyle=auto;fillColor=#f8cecc;opacity=60;strokeColor=#b85450;fontSize=36;" parent="1" vertex="1">
          <mxGeometry x="1810.5" y="310" width="169.47" height="216" as="geometry" />
        </mxCell>
        <mxCell id="R6_tbuOiA4LubrBfz1OE-21579" value="打印店" style="rounded=0;whiteSpace=wrap;html=1;shadow=0;glass=0;sketch=0;fillStyle=auto;fillColor=#fff2cc;opacity=60;strokeColor=#d6b656;fontSize=36;" parent="1" vertex="1">
          <mxGeometry x="1659" y="1350" width="150" height="210" as="geometry" />
        </mxCell>
        <mxCell id="R6_tbuOiA4LubrBfz1OE-21582" value="&lt;font style=&quot;font-size: 32px;&quot;&gt;艺美MT造型&lt;/font&gt;" style="rounded=0;whiteSpace=wrap;html=1;shadow=0;glass=0;sketch=0;fillStyle=auto;fontSize=36;fillColor=#d5e8d4;opacity=60;strokeColor=#82b366;" parent="1" vertex="1">
          <mxGeometry x="1809" y="1275" width="161" height="190" as="geometry" />
        </mxCell>
        <mxCell id="R6_tbuOiA4LubrBfz1OE-21584" value="&lt;font style=&quot;font-size: 24px;&quot;&gt;小姑娘&lt;br style=&quot;font-size: 24px;&quot;&gt;冰激凌&lt;/font&gt;" style="shape=manualInput;whiteSpace=wrap;html=1;rounded=0;shadow=0;glass=0;sketch=0;fillStyle=auto;fontSize=24;fillColor=#fff2cc;opacity=60;rotation=-1;strokeColor=#d6b656;direction=south;labelPosition=center;verticalLabelPosition=middle;align=left;verticalAlign=middle;size=53;" parent="1" vertex="1">
          <mxGeometry x="1809" y="746" width="104.14" height="130" as="geometry" />
        </mxCell>
        <mxCell id="R6_tbuOiA4LubrBfz1OE-21586" value="&lt;font style=&quot;font-size: 36px;&quot;&gt;洗衣店&lt;/font&gt;" style="rounded=0;whiteSpace=wrap;html=1;shadow=0;glass=0;sketch=0;fillStyle=auto;fontSize=36;fillColor=#f8cecc;strokeColor=#b85450;opacity=60;" parent="1" vertex="1">
          <mxGeometry x="1489" y="1350" width="170" height="210" as="geometry" />
        </mxCell>
        <mxCell id="R6_tbuOiA4LubrBfz1OE-21587" value="电信营业厅" style="rounded=0;whiteSpace=wrap;html=1;shadow=0;glass=0;sketch=0;fillStyle=auto;fontSize=36;fillColor=#e1d5e7;opacity=60;strokeColor=#9673a6;" parent="1" vertex="1">
          <mxGeometry x="1299" y="1350" width="190" height="210" as="geometry" />
        </mxCell>
        <mxCell id="R6_tbuOiA4LubrBfz1OE-21588" value="打印店" style="rounded=0;whiteSpace=wrap;html=1;shadow=0;glass=0;sketch=0;fillStyle=auto;fontSize=36;fillColor=#d5e8d4;opacity=60;strokeColor=#82b366;" parent="1" vertex="1">
          <mxGeometry x="1069" y="1350" width="230" height="210" as="geometry" />
        </mxCell>
        <mxCell id="R6_tbuOiA4LubrBfz1OE-21589" value="精品&lt;br&gt;水果捞" style="rounded=0;whiteSpace=wrap;html=1;shadow=0;glass=0;sketch=0;fillStyle=auto;fontSize=36;fillColor=#6a00ff;opacity=60;fontColor=#ffffff;strokeColor=#3700CC;" parent="1" vertex="1">
          <mxGeometry x="213.73" y="1001.5" width="168.75" height="238.5" as="geometry" />
        </mxCell>
        <mxCell id="R6_tbuOiA4LubrBfz1OE-21590" value="杂货店" style="rounded=0;whiteSpace=wrap;html=1;shadow=0;glass=0;sketch=0;fillStyle=auto;fontSize=36;fillColor=#e1d5e7;opacity=60;strokeColor=#9673a6;" parent="1" vertex="1">
          <mxGeometry x="639" y="1350" width="220" height="210" as="geometry" />
        </mxCell>
        <mxCell id="R6_tbuOiA4LubrBfz1OE-21591" value="蜜雪冰城" style="rounded=0;whiteSpace=wrap;html=1;shadow=0;glass=0;sketch=0;fillStyle=auto;fontSize=36;fillColor=#d80073;opacity=60;fontColor=#ffffff;strokeColor=#A50040;" parent="1" vertex="1">
          <mxGeometry x="212.94" y="771" width="170" height="230" as="geometry" />
        </mxCell>
        <mxCell id="R6_tbuOiA4LubrBfz1OE-21592" value="鲜花" style="rounded=1;whiteSpace=wrap;html=1;shadow=0;glass=0;sketch=0;fillStyle=auto;fontSize=24;fillColor=#fff2cc;opacity=60;strokeColor=#d6b656;" parent="1" vertex="1">
          <mxGeometry x="215.94" y="523.7199999999999" width="190" height="66.09" as="geometry" />
        </mxCell>
        <mxCell id="R6_tbuOiA4LubrBfz1OE-21595" value="&lt;p style=&quot;line-height: 100%;&quot;&gt;&lt;font style=&quot;font-size: 24px;&quot;&gt;同心路入口&lt;/font&gt;&lt;/p&gt;" style="shape=flexArrow;endArrow=classic;html=1;rounded=0;fontSize=36;width=44.16666666666667;endSize=16.275000000000002;endWidth=35.69444444444444;align=left;labelBackgroundColor=none;" parent="1" edge="1">
          <mxGeometry x="-0.875" width="50" height="50" relative="1" as="geometry">
            <mxPoint x="29" y="664" as="sourcePoint" />
            <mxPoint x="189" y="664" as="targetPoint" />
            <mxPoint as="offset" />
          </mxGeometry>
        </mxCell>
        <mxCell id="R6_tbuOiA4LubrBfz1OE-21600" value="糖果巧克力" style="rounded=0;whiteSpace=wrap;html=1;shadow=0;glass=0;sketch=1;fillStyle=auto;fontSize=36;fontColor=none;fillColor=#E85642;gradientColor=none;opacity=60;" parent="1" vertex="1">
          <mxGeometry x="456.73" y="532.92" width="250" height="47.82" as="geometry" />
        </mxCell>
        <mxCell id="R6_tbuOiA4LubrBfz1OE-21602" value="饮品冰柜" style="rounded=0;whiteSpace=wrap;html=1;shadow=0;glass=0;sketch=0;fillStyle=auto;fontSize=36;fontColor=#ffffff;fillColor=#2BE9F0;strokeColor=#006EAF;" parent="1" vertex="1">
          <mxGeometry x="709" y="532.82" width="460" height="47.18" as="geometry" />
        </mxCell>
        <mxCell id="R6_tbuOiA4LubrBfz1OE-21603" value="酸奶冰柜" style="rounded=0;whiteSpace=wrap;html=1;shadow=0;glass=0;sketch=0;fillStyle=auto;fontSize=36;fontColor=#ffffff;fillColor=#2BE9F0;strokeColor=#006EAF;" parent="1" vertex="1">
          <mxGeometry x="1169" y="532.82" width="340" height="47.18" as="geometry" />
        </mxCell>
        <mxCell id="R6_tbuOiA4LubrBfz1OE-21604" value="消防楼梯" style="rounded=0;whiteSpace=wrap;html=1;shadow=0;glass=0;sketch=0;fillStyle=auto;fontSize=36;fontColor=#ffffff;fillColor=#6d8764;strokeColor=#3A5431;" parent="1" vertex="1">
          <mxGeometry x="214" y="1240" width="355.27" height="110" as="geometry" />
        </mxCell>
        <mxCell id="R6_tbuOiA4LubrBfz1OE-21612" value="自&lt;br&gt;助&lt;br&gt;结&lt;br&gt;账" style="rounded=1;whiteSpace=wrap;html=1;shadow=0;glass=0;sketch=1;fillStyle=auto;fontSize=24;fontColor=none;fillColor=#E85642;gradientColor=none;opacity=60;" parent="1" vertex="1">
          <mxGeometry x="1770" y="746" width="39" height="130" as="geometry" />
        </mxCell>
        <mxCell id="R6_tbuOiA4LubrBfz1OE-21628" value="墙" style="rounded=0;whiteSpace=wrap;html=1;glass=0;shadow=0;sketch=0;fillColor=#C2C2C2;gradientColor=none;strokeColor=#666666;fillStyle=auto;fontSize=24;" parent="1" vertex="1">
          <mxGeometry x="706.73" y="104" width="23.27" height="336" as="geometry" />
        </mxCell>
        <mxCell id="YbemHmgVhAmF9NjTrUaJ-4" value="刘刘美味小屋" style="shape=manualInput;whiteSpace=wrap;html=1;rounded=0;shadow=0;glass=0;sketch=0;fillStyle=auto;fontSize=24;fillColor=#f8cecc;opacity=60;rotation=0;strokeColor=#b85450;direction=south;labelPosition=center;verticalLabelPosition=middle;align=center;verticalAlign=middle;size=59;" parent="1" vertex="1">
          <mxGeometry x="1809" y="880" width="161" height="140" as="geometry" />
        </mxCell>
        <mxCell id="YbemHmgVhAmF9NjTrUaJ-46" value="面包" style="rounded=1;whiteSpace=wrap;html=1;shadow=0;glass=0;sketch=1;fillStyle=auto;fontSize=30;fontColor=none;fillColor=#E85642;gradientColor=none;opacity=60;" parent="1" vertex="1">
          <mxGeometry x="1019" y="1040" width="90" height="280" as="geometry" />
        </mxCell>
        <mxCell id="YbemHmgVhAmF9NjTrUaJ-62" value="&lt;p style=&quot;line-height: 100%; font-size: 22px;&quot;&gt;&lt;font style=&quot;font-size: 22px;&quot;&gt;鞋刷&lt;br style=&quot;font-size: 22px;&quot;&gt;澡巾&lt;br style=&quot;font-size: 22px;&quot;&gt;澡花&lt;br style=&quot;font-size: 22px;&quot;&gt;水果刀&lt;br style=&quot;font-size: 22px;&quot;&gt;筷子&lt;br style=&quot;font-size: 22px;&quot;&gt;削皮器&lt;br style=&quot;font-size: 22px;&quot;&gt;鞋刷&lt;br style=&quot;font-size: 22px;&quot;&gt;衣架&lt;br style=&quot;font-size: 22px;&quot;&gt;雨伞&lt;br style=&quot;font-size: 22px;&quot;&gt;挂钩&lt;br style=&quot;font-size: 22px;&quot;&gt;剪刀&lt;/font&gt;&lt;br style=&quot;font-size: 22px;&quot;&gt;&lt;/p&gt;" style="rounded=1;whiteSpace=wrap;html=1;shadow=0;glass=0;sketch=1;fillStyle=auto;fontSize=22;fontColor=none;fillColor=#E85642;gradientColor=none;opacity=60;" parent="1" vertex="1">
          <mxGeometry x="793.5" y="1040" width="60" height="280" as="geometry" />
        </mxCell>
        <mxCell id="YbemHmgVhAmF9NjTrUaJ-63" value="卫生巾" style="rounded=1;whiteSpace=wrap;html=1;shadow=0;glass=0;sketch=1;fillStyle=auto;fontSize=27;fontColor=none;fillColor=#E85642;gradientColor=none;opacity=60;" parent="1" vertex="1">
          <mxGeometry x="733.5" y="1040" width="60" height="280" as="geometry" />
        </mxCell>
        <mxCell id="YbemHmgVhAmF9NjTrUaJ-64" value="&lt;p style=&quot;line-height: 120%; font-size: 19px;&quot;&gt;&lt;font style=&quot;font-size: 19px;&quot;&gt;垃圾袋&lt;br&gt;漱口杯&lt;br&gt;棉签&lt;br&gt;台灯&lt;br&gt;保鲜袋&lt;br&gt;拖鞋&lt;/font&gt;&lt;br&gt;&lt;/p&gt;" style="rounded=1;whiteSpace=wrap;html=1;shadow=0;glass=0;sketch=1;fillStyle=auto;fontSize=27;fontColor=none;fillColor=#E85642;gradientColor=none;opacity=60;" parent="1" vertex="1">
          <mxGeometry x="931" y="1040" width="60" height="280" as="geometry" />
        </mxCell>
        <mxCell id="YbemHmgVhAmF9NjTrUaJ-72" value="糖果" style="rounded=1;whiteSpace=wrap;html=1;shadow=0;glass=0;sketch=1;fillStyle=auto;fontSize=27;fontColor=none;fillColor=#E85642;gradientColor=none;opacity=60;" parent="1" vertex="1">
          <mxGeometry x="1479" y="1040" width="60" height="280" as="geometry" />
        </mxCell>
        <mxCell id="YbemHmgVhAmF9NjTrUaJ-73" value="泡面" style="rounded=1;whiteSpace=wrap;html=1;shadow=0;glass=0;sketch=1;fillStyle=auto;fontSize=27;fontColor=none;fillColor=#E85642;gradientColor=none;opacity=60;" parent="1" vertex="1">
          <mxGeometry x="1419" y="1040" width="60" height="280" as="geometry" />
        </mxCell>
        <mxCell id="YbemHmgVhAmF9NjTrUaJ-74" value="果脯&lt;br&gt;肉干&lt;br&gt;干果" style="rounded=1;whiteSpace=wrap;html=1;shadow=0;glass=0;sketch=1;fillStyle=auto;fontSize=27;fontColor=none;fillColor=#E85642;gradientColor=none;opacity=60;" parent="1" vertex="1">
          <mxGeometry x="1339" y="1040" width="60" height="280" as="geometry" />
        </mxCell>
        <mxCell id="YbemHmgVhAmF9NjTrUaJ-75" value="花生&lt;br&gt;瓜子&lt;br&gt;果脯&lt;br&gt;" style="rounded=1;whiteSpace=wrap;html=1;shadow=0;glass=0;sketch=1;fillStyle=auto;fontSize=27;fontColor=none;fillColor=#E85642;gradientColor=none;opacity=60;" parent="1" vertex="1">
          <mxGeometry x="1279" y="1040" width="60" height="280" as="geometry" />
        </mxCell>
        <mxCell id="YbemHmgVhAmF9NjTrUaJ-76" value="泡面&lt;br&gt;自热米饭&lt;br&gt;" style="rounded=1;whiteSpace=wrap;html=1;shadow=0;glass=0;sketch=1;fillStyle=auto;fontSize=27;fontColor=none;fillColor=#E85642;gradientColor=none;opacity=60;" parent="1" vertex="1">
          <mxGeometry x="1199" y="1040" width="60" height="280" as="geometry" />
        </mxCell>
        <mxCell id="YbemHmgVhAmF9NjTrUaJ-77" value="泡面&lt;br&gt;辣酱&lt;br&gt;蜂蜜" style="rounded=1;whiteSpace=wrap;html=1;shadow=0;glass=0;sketch=1;fillStyle=auto;fontSize=27;fontColor=none;fillColor=#E85642;gradientColor=none;opacity=60;" parent="1" vertex="1">
          <mxGeometry x="1139" y="1040" width="60" height="280" as="geometry" />
        </mxCell>
        <mxCell id="YbemHmgVhAmF9NjTrUaJ-81" value="插座&lt;br&gt;拖鞋&lt;br&gt;水杯&lt;br&gt;暖壶&lt;br&gt;毛巾&lt;br&gt;" style="rounded=1;whiteSpace=wrap;html=1;shadow=0;glass=0;sketch=1;fillStyle=auto;fontSize=27;fontColor=none;fillColor=#E85642;gradientColor=none;opacity=60;" parent="1" vertex="1">
          <mxGeometry x="872" y="1040" width="60" height="280" as="geometry" />
        </mxCell>
        <mxCell id="YbemHmgVhAmF9NjTrUaJ-82" value="湿巾&lt;br&gt;卫生巾" style="rounded=1;whiteSpace=wrap;html=1;shadow=0;glass=0;sketch=1;fillStyle=auto;fontSize=27;fontColor=none;fillColor=#E85642;gradientColor=none;opacity=60;" parent="1" vertex="1">
          <mxGeometry x="659" y="1040" width="60" height="280" as="geometry" />
        </mxCell>
        <mxCell id="YbemHmgVhAmF9NjTrUaJ-83" value="纸巾" style="rounded=1;whiteSpace=wrap;html=1;shadow=0;glass=0;sketch=1;fillStyle=auto;fontSize=27;fontColor=none;fillColor=#E85642;gradientColor=none;opacity=60;" parent="1" vertex="1">
          <mxGeometry x="599" y="1040" width="60" height="280" as="geometry" />
        </mxCell>
        <mxCell id="YbemHmgVhAmF9NjTrUaJ-84" value="纸巾" style="rounded=1;whiteSpace=wrap;html=1;shadow=0;glass=0;sketch=1;fillStyle=auto;fontSize=27;fontColor=none;fillColor=#E85642;gradientColor=none;opacity=60;" parent="1" vertex="1">
          <mxGeometry x="529" y="1040" width="60" height="190" as="geometry" />
        </mxCell>
        <mxCell id="YbemHmgVhAmF9NjTrUaJ-85" value="纸巾" style="rounded=1;whiteSpace=wrap;html=1;shadow=0;glass=0;sketch=1;fillStyle=auto;fontSize=27;fontColor=none;fillColor=#E85642;gradientColor=none;opacity=60;" parent="1" vertex="1">
          <mxGeometry x="469" y="1040" width="60" height="190" as="geometry" />
        </mxCell>
        <mxCell id="YbemHmgVhAmF9NjTrUaJ-86" value="膨化食品" style="rounded=1;whiteSpace=wrap;html=1;shadow=0;glass=0;sketch=1;fillStyle=auto;fontSize=27;fontColor=none;fillColor=#E85642;gradientColor=none;opacity=60;" parent="1" vertex="1">
          <mxGeometry x="1617" y="746" width="60" height="280" as="geometry" />
        </mxCell>
        <mxCell id="YbemHmgVhAmF9NjTrUaJ-87" value="膨化食品" style="rounded=1;whiteSpace=wrap;html=1;shadow=0;glass=0;sketch=1;fillStyle=auto;fontSize=27;fontColor=none;fillColor=#E85642;gradientColor=none;opacity=60;" parent="1" vertex="1">
          <mxGeometry x="1557" y="746.5" width="60" height="280" as="geometry" />
        </mxCell>
        <mxCell id="YbemHmgVhAmF9NjTrUaJ-88" value="冲泡&lt;br&gt;罐头&lt;br&gt;果冻" style="rounded=1;whiteSpace=wrap;html=1;shadow=0;glass=0;sketch=1;fillStyle=auto;fontSize=27;fontColor=none;fillColor=#E85642;gradientColor=none;opacity=60;" parent="1" vertex="1">
          <mxGeometry x="1479" y="746.5" width="60" height="280" as="geometry" />
        </mxCell>
        <mxCell id="YbemHmgVhAmF9NjTrUaJ-89" value="矿泉水" style="rounded=1;whiteSpace=wrap;html=1;shadow=0;glass=0;sketch=1;fillStyle=auto;fontSize=27;fontColor=none;fillColor=#E85642;gradientColor=none;opacity=60;" parent="1" vertex="1">
          <mxGeometry x="1419" y="746.5" width="60" height="280" as="geometry" />
        </mxCell>
        <mxCell id="YbemHmgVhAmF9NjTrUaJ-90" value="饮品" style="rounded=1;whiteSpace=wrap;html=1;shadow=0;glass=0;sketch=1;fillStyle=auto;fontSize=27;fontColor=none;fillColor=#E85642;gradientColor=none;opacity=60;" parent="1" vertex="1">
          <mxGeometry x="1329" y="746.5" width="60" height="280" as="geometry" />
        </mxCell>
        <mxCell id="YbemHmgVhAmF9NjTrUaJ-91" value="饮品" style="rounded=1;whiteSpace=wrap;html=1;shadow=0;glass=0;sketch=1;fillStyle=auto;fontSize=27;fontColor=none;fillColor=#E85642;gradientColor=none;opacity=60;" parent="1" vertex="1">
          <mxGeometry x="1269" y="746.5" width="60" height="280" as="geometry" />
        </mxCell>
        <mxCell id="YbemHmgVhAmF9NjTrUaJ-92" value="面包" style="rounded=1;whiteSpace=wrap;html=1;shadow=0;glass=0;sketch=1;fillStyle=auto;fontSize=30;fontColor=none;fillColor=#E85642;gradientColor=none;opacity=60;" parent="1" vertex="1">
          <mxGeometry x="1019" y="746.5" width="90" height="280" as="geometry" />
        </mxCell>
        <mxCell id="YbemHmgVhAmF9NjTrUaJ-95" value="香肠&lt;br&gt;卤货" style="rounded=1;whiteSpace=wrap;html=1;shadow=0;glass=0;sketch=1;fillStyle=auto;fontSize=27;fontColor=none;fillColor=#E85642;gradientColor=none;opacity=60;" parent="1" vertex="1">
          <mxGeometry x="931" y="746.5" width="60" height="280" as="geometry" />
        </mxCell>
        <mxCell id="YbemHmgVhAmF9NjTrUaJ-96" value="鸭货&lt;br&gt;鸡腿&lt;br&gt;辣条" style="rounded=1;whiteSpace=wrap;html=1;shadow=0;glass=0;sketch=1;fillStyle=auto;fontSize=27;fontColor=none;fillColor=#E85642;gradientColor=none;opacity=60;" parent="1" vertex="1">
          <mxGeometry x="871" y="746.5" width="60" height="280" as="geometry" />
        </mxCell>
        <mxCell id="YbemHmgVhAmF9NjTrUaJ-97" value="辣条&lt;br&gt;鸭货&lt;br&gt;鸡腿" style="rounded=1;whiteSpace=wrap;html=1;shadow=0;glass=0;sketch=1;fillStyle=auto;fontSize=27;fontColor=none;fillColor=#E85642;gradientColor=none;opacity=60;" parent="1" vertex="1">
          <mxGeometry x="793.5" y="746.5" width="60" height="280" as="geometry" />
        </mxCell>
        <mxCell id="YbemHmgVhAmF9NjTrUaJ-98" value="饼干&lt;br&gt;糕点" style="rounded=1;whiteSpace=wrap;html=1;shadow=0;glass=0;sketch=1;fillStyle=auto;fontSize=27;fontColor=none;fillColor=#E85642;gradientColor=none;opacity=60;" parent="1" vertex="1">
          <mxGeometry x="733.5" y="746.5" width="60" height="280" as="geometry" />
        </mxCell>
        <mxCell id="YbemHmgVhAmF9NjTrUaJ-99" value="饼干&lt;br&gt;糕点" style="rounded=1;whiteSpace=wrap;html=1;shadow=0;glass=0;sketch=1;fillStyle=auto;fontSize=27;fontColor=none;fillColor=#E85642;gradientColor=none;opacity=60;" parent="1" vertex="1">
          <mxGeometry x="659" y="746.5" width="60" height="280" as="geometry" />
        </mxCell>
        <mxCell id="YbemHmgVhAmF9NjTrUaJ-100" value="洗衣液&lt;br&gt;香皂&lt;br&gt;洗洁精&lt;br&gt;肥皂" style="rounded=1;whiteSpace=wrap;html=1;shadow=0;glass=0;sketch=1;fillStyle=auto;fontSize=27;fontColor=none;fillColor=#E85642;gradientColor=none;opacity=60;" parent="1" vertex="1">
          <mxGeometry x="599" y="746.5" width="60" height="280" as="geometry" />
        </mxCell>
        <mxCell id="YbemHmgVhAmF9NjTrUaJ-101" value="毛巾&lt;br&gt;牙刷&lt;br&gt;袜子&lt;br&gt;内裤" style="rounded=1;whiteSpace=wrap;html=1;shadow=0;glass=0;sketch=1;fillStyle=auto;fontSize=27;fontColor=none;fillColor=#E85642;gradientColor=none;opacity=60;" parent="1" vertex="1">
          <mxGeometry x="529" y="746.5" width="60" height="280" as="geometry" />
        </mxCell>
        <mxCell id="YbemHmgVhAmF9NjTrUaJ-102" value="洗发水&lt;br&gt;沐浴露&lt;br&gt;洗面奶" style="rounded=1;whiteSpace=wrap;html=1;shadow=0;glass=0;sketch=1;fillStyle=auto;fontSize=27;fontColor=none;fillColor=#E85642;gradientColor=none;opacity=60;" parent="1" vertex="1">
          <mxGeometry x="469" y="746.5" width="60" height="280" as="geometry" />
        </mxCell>
        <mxCell id="YbemHmgVhAmF9NjTrUaJ-103" value="自助结账" style="rounded=1;whiteSpace=wrap;html=1;shadow=0;glass=0;sketch=1;fillStyle=auto;fontSize=27;fontColor=none;fillColor=#E85642;gradientColor=none;opacity=60;" parent="1" vertex="1">
          <mxGeometry x="215.94" y="709" width="173.06" height="37" as="geometry" />
        </mxCell>
        <mxCell id="YbemHmgVhAmF9NjTrUaJ-106" value="雪糕 冰激凌" style="rounded=0;whiteSpace=wrap;html=1;shadow=0;glass=0;sketch=0;fillStyle=auto;fontSize=36;fontColor=#ffffff;fillColor=#2BE9F0;strokeColor=#006EAF;" parent="1" vertex="1">
          <mxGeometry x="1039" y="625" width="260" height="70" as="geometry" />
        </mxCell>
        <mxCell id="YbemHmgVhAmF9NjTrUaJ-107" value="人工结账" style="rounded=1;whiteSpace=wrap;html=1;shadow=0;glass=0;sketch=1;fillStyle=auto;fontSize=27;fontColor=none;fillColor=#E85642;gradientColor=none;opacity=60;" parent="1" vertex="1">
          <mxGeometry x="1569" y="620" width="130" height="40" as="geometry" />
        </mxCell>
        <mxCell id="YbemHmgVhAmF9NjTrUaJ-111" value="&lt;font style=&quot;font-size: 60px;&quot;&gt;北苑生活区分布图&lt;/font&gt;" style="text;html=1;resizable=0;autosize=1;align=center;verticalAlign=middle;points=[];fillColor=none;strokeColor=none;rounded=0;fontSize=36;" parent="1" vertex="1">
          <mxGeometry x="769" y="10" width="500" height="90" as="geometry" />
        </mxCell>
        <mxCell id="xjmqVt3X7ruV0F9-SoPd-1" value="办公室" style="rounded=0;whiteSpace=wrap;html=1;shadow=0;glass=0;sketch=0;fillStyle=auto;fontSize=36;fillColor=#d5e8d4;opacity=60;strokeColor=#82b366;" parent="1" vertex="1">
          <mxGeometry x="568" y="1350" width="71" height="210" as="geometry" />
        </mxCell>
        <mxCell id="xjmqVt3X7ruV0F9-SoPd-4" value="作者: Mr.Hope" style="text;html=1;resizable=0;autosize=1;align=center;verticalAlign=middle;points=[];fillColor=none;strokeColor=none;rounded=0;fontSize=24;" parent="1" vertex="1">
          <mxGeometry x="10" y="1550" width="180" height="40" as="geometry" />
        </mxCell>
        <mxCell id="xjmqVt3X7ruV0F9-SoPd-6" value="临时区" style="rounded=1;whiteSpace=wrap;html=1;shadow=0;glass=0;sketch=1;fillStyle=auto;fontSize=27;fontColor=none;fillColor=#E85642;gradientColor=none;opacity=60;" parent="1" vertex="1">
          <mxGeometry x="1699" y="890" width="60" height="129.25" as="geometry" />
        </mxCell>
        <mxCell id="xjmqVt3X7ruV0F9-SoPd-9" value="盆&lt;br&gt;垃圾桶" style="rounded=1;whiteSpace=wrap;html=1;shadow=0;glass=0;sketch=1;fillStyle=auto;fontSize=36;fillColor=#e1d5e7;opacity=60;strokeColor=#9673a6;" parent="1" vertex="1">
          <mxGeometry x="449" y="619.63" width="160.53" height="80" as="geometry" />
        </mxCell>
        <mxCell id="xjmqVt3X7ruV0F9-SoPd-10" value="新生用品" style="rounded=1;whiteSpace=wrap;html=1;shadow=0;glass=0;sketch=1;fillStyle=auto;fontSize=36;fillColor=#e1d5e7;opacity=60;strokeColor=#9673a6;" parent="1" vertex="1">
          <mxGeometry x="813.5" y="619.63" width="180" height="80.74" as="geometry" />
        </mxCell>
        <mxCell id="xjmqVt3X7ruV0F9-SoPd-14" value="" style="endArrow=none;html=1;rounded=0;fontSize=24;exitX=0.75;exitY=1;exitDx=0;exitDy=0;entryX=0.75;entryY=0;entryDx=0;entryDy=0;" parent="1" source="xjmqVt3X7ruV0F9-SoPd-12" target="xjmqVt3X7ruV0F9-SoPd-12" edge="1">
          <mxGeometry width="50" height="50" relative="1" as="geometry">
            <mxPoint x="1351" y="760" as="sourcePoint" />
            <mxPoint x="1859" y="620" as="targetPoint" />
          </mxGeometry>
        </mxCell>
        <mxCell id="xjmqVt3X7ruV0F9-SoPd-16" value="" style="endArrow=none;html=1;rounded=0;fontSize=24;exitX=0.25;exitY=1;exitDx=0;exitDy=0;entryX=0.25;entryY=0;entryDx=0;entryDy=0;" parent="1" source="xjmqVt3X7ruV0F9-SoPd-12" target="xjmqVt3X7ruV0F9-SoPd-12" edge="1">
          <mxGeometry width="50" height="50" relative="1" as="geometry">
            <mxPoint x="1859.1025" y="730.0000000000002" as="sourcePoint" />
            <mxPoint x="1859" y="590" as="targetPoint" />
          </mxGeometry>
        </mxCell>
        <mxCell id="xjmqVt3X7ruV0F9-SoPd-18" value="" style="endArrow=none;html=1;rounded=0;fontSize=24;exitX=0.25;exitY=1;exitDx=0;exitDy=0;" parent="1" target="xjmqVt3X7ruV0F9-SoPd-12" edge="1">
          <mxGeometry width="50" height="50" relative="1" as="geometry">
            <mxPoint x="1851.1025" y="727.82" as="sourcePoint" />
            <mxPoint x="1851" y="587.82" as="targetPoint" />
          </mxGeometry>
        </mxCell>
        <mxCell id="qVWmPh6hgpJYSadUTfBa-2" value="幸运咖" style="rounded=0;whiteSpace=wrap;html=1;shadow=0;glass=0;sketch=0;fillColor=#ffe6cc;strokeColor=#d79b00;fontSize=36;" parent="1" vertex="1">
          <mxGeometry x="214.73" y="104" width="245.27" height="176" as="geometry" />
        </mxCell>
        <mxCell id="qVWmPh6hgpJYSadUTfBa-3" value="墙" style="rounded=0;whiteSpace=wrap;html=1;glass=0;shadow=0;sketch=0;fillColor=#C2C2C2;gradientColor=none;strokeColor=#666666;fillStyle=auto;fontSize=24;" parent="1" vertex="1">
          <mxGeometry x="214.38" y="503.45000000000005" width="189.62" height="26.37" as="geometry" />
        </mxCell>
        <mxCell id="qVWmPh6hgpJYSadUTfBa-6" value="墙" style="rounded=0;whiteSpace=wrap;html=1;glass=0;shadow=0;sketch=0;fillColor=#C2C2C2;gradientColor=none;strokeColor=#666666;fillStyle=auto;fontSize=20;" parent="1" vertex="1">
          <mxGeometry x="214.73" y="746.5" width="174.27" height="23.5" as="geometry" />
        </mxCell>
        <mxCell id="xOUL4sWhdLIrKVsOlXZL-1" value="移动营业厅" style="rounded=0;whiteSpace=wrap;html=1;shadow=0;glass=0;sketch=0;fillStyle=auto;fontSize=36;fillColor=#f8cecc;strokeColor=#b85450;opacity=60;" parent="1" vertex="1">
          <mxGeometry x="859" y="1350" width="210" height="210" as="geometry" />
        </mxCell>
        <mxCell id="4zcDcCmV-l9QQNRoWqES-1" value="甜啦啦" style="rounded=0;whiteSpace=wrap;html=1;shadow=0;glass=0;sketch=0;fillStyle=auto;fontSize=36;fillColor=#e1d5e7;opacity=60;strokeColor=#9673a6;" parent="1" vertex="1">
          <mxGeometry x="213.73" y="280" width="136.27" height="220" as="geometry" />
        </mxCell>
        <mxCell id="4zcDcCmV-l9QQNRoWqES-3" value="休闲区&lt;br&gt;桌椅" style="rounded=1;whiteSpace=wrap;html=1;shadow=0;glass=0;sketch=1;fillStyle=auto;fontSize=36;fillColor=#e1d5e7;opacity=60;strokeColor=#9673a6;" parent="1" vertex="1">
          <mxGeometry x="510.94" y="300" width="185.11" height="160.72" as="geometry" />
        </mxCell>
        <mxCell id="4zcDcCmV-l9QQNRoWqES-4" value="墙" style="rounded=0;whiteSpace=wrap;html=1;glass=0;shadow=0;sketch=0;fillColor=#C2C2C2;gradientColor=none;strokeColor=#666666;fillStyle=auto;fontSize=24;" parent="1" vertex="1">
          <mxGeometry x="1539" y="504.26" width="30" height="105" as="geometry" />
        </mxCell>
        <mxCell id="4zcDcCmV-l9QQNRoWqES-6" value="酸奶冰柜" style="rounded=0;whiteSpace=wrap;html=1;shadow=0;glass=0;sketch=0;fillStyle=auto;fontSize=36;fontColor=#ffffff;fillColor=#2BE9F0;strokeColor=#006EAF;" parent="1" vertex="1">
          <mxGeometry x="1319" y="625" width="200" height="70" as="geometry" />
        </mxCell>
        <mxCell id="4zcDcCmV-l9QQNRoWqES-7" value="苹果校园体验中心" style="rounded=1;whiteSpace=wrap;html=1;shadow=0;glass=0;sketch=1;fillStyle=auto;fontSize=36;fillColor=#e1d5e7;opacity=60;strokeColor=#9673a6;" parent="1" vertex="1">
          <mxGeometry x="1579" y="1070" width="187.5" height="220" as="geometry" />
        </mxCell>
        <mxCell id="4zcDcCmV-l9QQNRoWqES-8" value="" style="shape=flexArrow;endArrow=classic;html=1;rounded=0;fontSize=36;width=52;endSize=20.44666666666667;endWidth=46;" parent="1" edge="1">
          <mxGeometry width="50" height="50" relative="1" as="geometry">
            <mxPoint x="2092.77" y="639" as="sourcePoint" />
            <mxPoint x="1940.77" y="639" as="targetPoint" />
          </mxGeometry>
        </mxCell>
        <mxCell id="3FF_qWYbAszYkkDB3c3L-5" value="&lt;font style=&quot;font-size: 24px;&quot;&gt;北苑大厅&lt;/font&gt;" style="edgeLabel;html=1;align=center;verticalAlign=middle;resizable=0;points=[];" parent="4zcDcCmV-l9QQNRoWqES-8" vertex="1" connectable="0">
          <mxGeometry x="0.0014" y="-2" relative="1" as="geometry">
            <mxPoint as="offset" />
          </mxGeometry>
        </mxCell>
        <mxCell id="4zcDcCmV-l9QQNRoWqES-9" value="新生用品" style="rounded=1;whiteSpace=wrap;html=1;shadow=0;glass=0;sketch=1;fillStyle=auto;fontSize=36;fillColor=#e1d5e7;opacity=60;strokeColor=#9673a6;" parent="1" vertex="1">
          <mxGeometry x="623.73" y="619.63" width="180" height="80.74" as="geometry" />
        </mxCell>
        <mxCell id="4zcDcCmV-l9QQNRoWqES-10" value="促销区" style="rounded=1;whiteSpace=wrap;html=1;shadow=0;glass=0;sketch=1;fillStyle=auto;fontSize=24;fillColor=#e1d5e7;opacity=60;strokeColor=#9673a6;" parent="1" vertex="1">
          <mxGeometry x="408.62" y="740" width="50.38" height="140" as="geometry" />
        </mxCell>
        <mxCell id="4zcDcCmV-l9QQNRoWqES-12" value="牛奶" style="rounded=1;whiteSpace=wrap;html=1;shadow=0;glass=0;sketch=1;fillStyle=auto;fontSize=24;fillColor=#e1d5e7;opacity=60;strokeColor=#9673a6;" parent="1" vertex="1">
          <mxGeometry x="403.62" y="890" width="55.38" height="130" as="geometry" />
        </mxCell>
        <mxCell id="4zcDcCmV-l9QQNRoWqES-13" value="纸巾" style="rounded=1;whiteSpace=wrap;html=1;shadow=0;glass=0;sketch=1;fillStyle=auto;fontSize=27;fontColor=none;fillColor=none;gradientColor=none;opacity=60;" parent="1" vertex="1">
          <mxGeometry x="399" y="1040" width="60" height="190" as="geometry" />
        </mxCell>
        <mxCell id="4zcDcCmV-l9QQNRoWqES-15" value="功能饮料&lt;br&gt;牛奶酸奶" style="rounded=1;whiteSpace=wrap;html=1;shadow=0;glass=0;sketch=1;fillStyle=auto;fontSize=27;fontColor=none;fillColor=#E85642;gradientColor=none;opacity=60;" parent="1" vertex="1">
          <mxGeometry x="1189" y="746.5" width="60" height="280" as="geometry" />
        </mxCell>
        <mxCell id="4zcDcCmV-l9QQNRoWqES-16" value="乳饮料" style="rounded=1;whiteSpace=wrap;html=1;shadow=0;glass=0;sketch=1;fillStyle=auto;fontSize=27;fontColor=none;fillColor=#E85642;gradientColor=none;opacity=60;" parent="1" vertex="1">
          <mxGeometry x="1129" y="746.5" width="60" height="280" as="geometry" />
        </mxCell>
        <mxCell id="4zcDcCmV-l9QQNRoWqES-18" value="口香糖" style="rounded=1;whiteSpace=wrap;html=1;shadow=0;glass=0;sketch=1;fillStyle=auto;fontSize=20;fontColor=none;fillColor=#E85642;gradientColor=none;opacity=60;" parent="1" vertex="1">
          <mxGeometry x="1509" y="531.37" width="30" height="78.63" as="geometry" />
        </mxCell>
        <mxCell id="4zcDcCmV-l9QQNRoWqES-19" value="&lt;font style=&quot;font-size: 36px;&quot;&gt;葱蜂鲜果&lt;/font&gt;" style="rounded=0;whiteSpace=wrap;html=1;shadow=0;glass=0;sketch=0;fillStyle=auto;fontSize=36;fillColor=#fff2cc;opacity=60;strokeColor=#d6b656;" parent="1" vertex="1">
          <mxGeometry x="1810.5" y="1020" width="159.5" height="255" as="geometry" />
        </mxCell>
        <mxCell id="3FF_qWYbAszYkkDB3c3L-2" value="墙" style="rounded=0;whiteSpace=wrap;html=1;glass=0;shadow=0;sketch=0;fillColor=#C2C2C2;gradientColor=none;strokeColor=#666666;fillStyle=auto;fontSize=24;" parent="1" vertex="1">
          <mxGeometry x="1569" y="580.74" width="140" height="29.26" as="geometry" />
        </mxCell>
        <mxCell id="3FF_qWYbAszYkkDB3c3L-3" value="&lt;font style=&quot;font-size: 20px;&quot;&gt;回收机&lt;/font&gt;" style="rounded=1;whiteSpace=wrap;html=1;shadow=0;glass=0;sketch=1;fillStyle=auto;fontSize=20;fillColor=#e1d5e7;opacity=60;strokeColor=#9673a6;" parent="1" vertex="1">
          <mxGeometry x="1569" y="528.63" width="61" height="51.37" as="geometry" />
        </mxCell>
        <mxCell id="3FF_qWYbAszYkkDB3c3L-7" value="" style="group" parent="1" vertex="1" connectable="0">
          <mxGeometry x="1920" y="30" width="84.36999999999989" height="170" as="geometry" />
        </mxCell>
        <mxCell id="R6_tbuOiA4LubrBfz1OE-21565" value="" style="endArrow=classic;html=1;rounded=0;fontSize=36;strokeWidth=8;" parent="3FF_qWYbAszYkkDB3c3L-7" edge="1">
          <mxGeometry width="50" height="50" relative="1" as="geometry">
            <mxPoint y="170" as="sourcePoint" />
            <mxPoint as="targetPoint" />
          </mxGeometry>
        </mxCell>
        <mxCell id="R6_tbuOiA4LubrBfz1OE-21566" value="&lt;font style=&quot;font-size: 48px;&quot;&gt;北&lt;/font&gt;" style="text;html=1;resizable=0;autosize=1;align=center;verticalAlign=middle;points=[];fillColor=none;strokeColor=none;rounded=0;fontSize=36;" parent="3FF_qWYbAszYkkDB3c3L-7" vertex="1">
          <mxGeometry x="14.36999999999989" y="50" width="70" height="70" as="geometry" />
        </mxCell>
      </root>
    </mxGraphModel>
  </diagram>
</mxfile>
